<svg xmlns="http://www.w3.org/2000/svg" viewBox="0 0 512 512" width="100%" height="100%">
  <defs>
    <linearGradient id="brand-grad" x1="0%" y1="0%" x2="100%" y2="100%">
      <stop offset="0%" stop-color="#f97316" />
      <stop offset="100%" stop-color="#ea580c" />
    </linearGradient>
  </defs>
  <!-- Background Rounded Rect -->
  <rect width="456" height="456" x="28" y="28" rx="110" fill="url(#brand-grad)" />
  
  <!-- Left Cat Ear -->
  <path d="M125 155 L200 245 L110 235 Z" fill="#ffffff" />
  
  <!-- Right Cat Ear -->
  <path d="M387 155 L312 245 L402 235 Z" fill="#ffffff" />
  
  <!-- Heart Silhouette (forming the head shape at the top) -->
  <path d="M256 400 c-30-25-156-125-156-190 c0-40 30-70 70-70 c22 0 45 15 56 35 c11-20 34-35 56-35 c40 0 70 30 70 70 c0 65-126 165-156 190 z" fill="#ffffff" />
</svg>